<mxfile host="app.diagrams.net" agent="Mozilla/5.0 (Windows NT 10.0; Win64; x64) AppleWebKit/537.36 (KHTML, like Gecko) Chrome/128.0.0.0 Safari/537.36 OPR/114.0.0.0" version="25.0.3">
  <diagram name="PÃ¡gina-1" id="TCbFf621B2BJqJwDpB_T">
    <mxGraphModel dx="1393" dy="763" grid="1" gridSize="10" guides="1" tooltips="1" connect="1" arrows="1" fold="1" page="1" pageScale="1" pageWidth="827" pageHeight="1169" math="0" shadow="0">
      <root>
        <mxCell id="0" />
        <mxCell id="1" parent="0" />
        <mxCell id="yKkGJw9G06wEMqRbcazX-1" value="INICIO" style="strokeWidth=2;html=1;shape=mxgraph.flowchart.start_1;whiteSpace=wrap;" vertex="1" parent="1">
          <mxGeometry x="364" y="40" width="100" height="60" as="geometry" />
        </mxCell>
        <mxCell id="yKkGJw9G06wEMqRbcazX-2" value="FIM" style="strokeWidth=2;html=1;shape=mxgraph.flowchart.start_1;whiteSpace=wrap;" vertex="1" parent="1">
          <mxGeometry x="364" y="690" width="100" height="60" as="geometry" />
        </mxCell>
        <mxCell id="yKkGJw9G06wEMqRbcazX-3" value="PRODUTO" style="html=1;strokeWidth=2;shape=manualInput;whiteSpace=wrap;rounded=1;size=26;arcSize=11;" vertex="1" parent="1">
          <mxGeometry x="364" y="150" width="100" height="60" as="geometry" />
        </mxCell>
        <mxCell id="yKkGJw9G06wEMqRbcazX-4" value="VALOR" style="html=1;strokeWidth=2;shape=manualInput;whiteSpace=wrap;rounded=1;size=26;arcSize=11;" vertex="1" parent="1">
          <mxGeometry x="364" y="260" width="100" height="60" as="geometry" />
        </mxCell>
        <mxCell id="yKkGJw9G06wEMqRbcazX-12" style="edgeStyle=orthogonalEdgeStyle;rounded=0;orthogonalLoop=1;jettySize=auto;html=1;entryX=0.5;entryY=0;entryDx=0;entryDy=0;" edge="1" parent="1" source="yKkGJw9G06wEMqRbcazX-5" target="yKkGJw9G06wEMqRbcazX-6">
          <mxGeometry relative="1" as="geometry" />
        </mxCell>
        <mxCell id="yKkGJw9G06wEMqRbcazX-5" value="DESCONTO" style="html=1;strokeWidth=2;shape=manualInput;whiteSpace=wrap;rounded=1;size=26;arcSize=11;" vertex="1" parent="1">
          <mxGeometry x="364" y="360" width="100" height="60" as="geometry" />
        </mxCell>
        <mxCell id="yKkGJw9G06wEMqRbcazX-6" value="PRECOFINAL = VALOR - (VALOR * DESCONTO)" style="rounded=1;whiteSpace=wrap;html=1;absoluteArcSize=1;arcSize=14;strokeWidth=2;" vertex="1" parent="1">
          <mxGeometry x="249" y="460" width="330" height="60" as="geometry" />
        </mxCell>
        <mxCell id="yKkGJw9G06wEMqRbcazX-7" value="PRODUTO&lt;div&gt;VALOR&lt;/div&gt;&lt;div&gt;DESCONTO&lt;/div&gt;&lt;div&gt;PRECOFINAL&lt;/div&gt;" style="strokeWidth=2;html=1;shape=mxgraph.flowchart.display;whiteSpace=wrap;" vertex="1" parent="1">
          <mxGeometry x="336" y="560" width="156" height="80" as="geometry" />
        </mxCell>
        <mxCell id="yKkGJw9G06wEMqRbcazX-10" style="edgeStyle=orthogonalEdgeStyle;rounded=0;orthogonalLoop=1;jettySize=auto;html=1;entryX=0.5;entryY=0.167;entryDx=0;entryDy=0;entryPerimeter=0;" edge="1" parent="1" source="yKkGJw9G06wEMqRbcazX-3" target="yKkGJw9G06wEMqRbcazX-4">
          <mxGeometry relative="1" as="geometry" />
        </mxCell>
        <mxCell id="yKkGJw9G06wEMqRbcazX-13" style="edgeStyle=orthogonalEdgeStyle;rounded=0;orthogonalLoop=1;jettySize=auto;html=1;entryX=0.5;entryY=0;entryDx=0;entryDy=0;entryPerimeter=0;" edge="1" parent="1" source="yKkGJw9G06wEMqRbcazX-6" target="yKkGJw9G06wEMqRbcazX-7">
          <mxGeometry relative="1" as="geometry" />
        </mxCell>
        <mxCell id="yKkGJw9G06wEMqRbcazX-14" style="edgeStyle=orthogonalEdgeStyle;rounded=0;orthogonalLoop=1;jettySize=auto;html=1;entryX=0.5;entryY=0;entryDx=0;entryDy=0;entryPerimeter=0;" edge="1" parent="1" source="yKkGJw9G06wEMqRbcazX-7" target="yKkGJw9G06wEMqRbcazX-2">
          <mxGeometry relative="1" as="geometry" />
        </mxCell>
        <mxCell id="yKkGJw9G06wEMqRbcazX-15" style="edgeStyle=orthogonalEdgeStyle;rounded=0;orthogonalLoop=1;jettySize=auto;html=1;entryX=0.5;entryY=0.167;entryDx=0;entryDy=0;entryPerimeter=0;" edge="1" parent="1" source="yKkGJw9G06wEMqRbcazX-4" target="yKkGJw9G06wEMqRbcazX-5">
          <mxGeometry relative="1" as="geometry" />
        </mxCell>
        <mxCell id="yKkGJw9G06wEMqRbcazX-16" style="edgeStyle=orthogonalEdgeStyle;rounded=0;orthogonalLoop=1;jettySize=auto;html=1;entryX=0.5;entryY=0.167;entryDx=0;entryDy=0;entryPerimeter=0;" edge="1" parent="1" source="yKkGJw9G06wEMqRbcazX-1" target="yKkGJw9G06wEMqRbcazX-3">
          <mxGeometry relative="1" as="geometry" />
        </mxCell>
      </root>
    </mxGraphModel>
  </diagram>
</mxfile>
